<svg version="1.1" id="Layer_1" xmlns="http://www.w3.org/2000/svg" xmlns:xlink="http://www.w3.org/1999/xlink" x="0px" y="0px"
	 width="100%" viewBox="0 0 1024 1024" enable-background="new 0 0 1024 1024" xml:space="preserve">
<path fill="#000000" opacity="1.000000" stroke="none" 
	d="
M727.556274,555.631592 
	C723.163757,556.853699 719.169556,558.009888 715.135986,559.006653 
	C711.852966,559.817810 708.974487,558.586975 706.078674,557.102844 
	C699.741821,553.855042 695.851318,554.740906 691.411255,560.484558 
	C689.152649,563.406311 685.943665,564.269775 682.714844,564.898743 
	C660.260559,569.272400 637.558350,570.665039 614.718811,570.341980 
	C611.801697,570.300720 609.697998,568.761108 607.601318,567.114441 
	C605.927612,565.799988 604.152710,564.827026 602.123108,566.046814 
	C590.642761,572.946350 578.647461,569.780457 566.653076,568.136475 
	C559.912964,567.212769 553.093201,566.789795 546.294312,566.410217 
	C543.065613,566.229980 540.548523,565.183289 538.468872,562.719055 
	C535.340271,559.011963 531.921814,557.304749 527.307983,560.751404 
	C522.725830,564.174438 517.386108,562.887268 512.329956,562.186218 
	C494.580994,559.725830 476.841827,557.186523 459.125275,554.503235 
	C443.486694,552.134766 428.118042,551.546021 413.132935,558.162659 
	C406.747528,560.982178 400.139648,561.945068 393.779968,556.970276 
	C391.207581,554.958069 388.026276,556.570312 386.556213,559.242493 
	C385.187408,561.730591 383.489563,562.287415 380.948700,562.365173 
	C368.439972,562.747559 355.998322,561.286682 343.511230,561.134216 
	C339.111542,561.080566 335.554291,559.076111 332.423584,556.095642 
	C330.270447,554.045898 327.852051,552.465027 324.902222,554.660645 
	C315.551361,561.620789 304.740417,560.893860 294.147003,560.037903 
	C286.861816,559.449158 279.479523,559.908020 272.280823,558.309082 
	C270.504333,557.914429 268.561798,557.721619 267.037018,556.843323 
	C262.747192,554.372314 258.636810,553.153992 253.864777,555.804138 
	C251.414551,557.164856 248.617310,555.752563 246.033585,555.283447 
	C232.233337,552.777649 218.655655,549.533630 206.517731,542.070923 
	C196.868912,536.138550 188.806870,528.602966 186.398331,517.111938 
	C183.799744,504.714233 187.003525,493.354004 194.941650,483.427063 
	C196.918198,480.955353 199.274902,480.359161 202.468018,481.468384 
	C232.484512,491.895386 263.599030,497.119965 295.051208,500.640747 
	C296.738129,500.829620 298.453033,502.298828 300.586945,500.684204 
	C292.214905,496.717987 283.415314,495.261169 274.746033,493.260803 
	C253.190201,488.286987 231.584503,483.448517 210.914093,475.314697 
	C208.282257,474.279022 205.676239,473.170746 203.096848,472.010315 
	C199.327026,470.314240 198.120834,467.307587 198.967499,463.393707 
	C199.961929,458.796600 201.881622,454.558563 204.079575,450.426208 
	C205.492996,447.768829 207.193039,447.672058 209.798767,449.016022 
	C234.426880,461.718872 260.768036,468.904694 287.925568,473.863708 
	C312.705261,478.388519 337.765045,479.610168 362.755096,481.820679 
	C395.005585,484.673340 426.411835,491.627197 457.284424,501.304901 
	C477.592438,507.670898 497.820435,514.378662 518.629272,519.010254 
	C536.107788,522.900635 553.678711,526.134399 571.458740,528.576355 
	C595.279541,531.847900 619.134705,533.238342 643.087891,532.598633 
	C675.065186,531.744507 706.745361,528.385559 737.853638,520.293579 
	C757.113037,515.283813 775.877991,509.262756 793.145813,499.189575 
	C796.558716,497.198639 799.852539,494.999176 801.989624,491.577271 
	C800.838806,489.745758 799.558594,490.459290 798.336670,490.923767 
	C772.104248,500.894684 745.011780,507.616486 717.310425,511.793121 
	C702.364380,514.046631 687.324707,515.697021 672.189819,516.348633 
	C656.879089,517.007874 641.558777,517.824036 626.249512,517.121155 
	C604.514893,516.123169 582.847534,514.564026 561.210510,511.763367 
	C526.678650,507.293640 493.777069,496.891602 460.747742,486.699249 
	C433.858124,478.401489 406.490112,472.407410 378.485718,469.154633 
	C353.717682,466.277802 328.811554,465.034271 304.046722,462.253174 
	C279.908844,459.542450 255.972641,455.692200 232.799240,448.088928 
	C230.431793,447.312134 228.100662,446.380829 225.837463,445.337311 
	C213.527908,439.661652 210.963089,434.556732 212.992569,421.228821 
	C219.417038,379.038666 230.302170,337.928680 242.808960,297.206482 
	C245.495422,288.459320 249.457016,280.814819 259.309967,278.183167 
	C268.451996,275.741455 275.770935,278.339508 281.038116,286.196075 
	C285.439301,292.760956 287.885223,300.241455 290.824890,307.477722 
	C293.669922,314.480988 297.404419,320.954285 302.018768,326.897247 
	C311.510803,339.122437 327.369354,342.991425 345.202515,338.128937 
	C364.567474,332.848755 381.712921,322.995819 398.847443,313.027313 
	C404.892975,309.510162 411.110687,306.286804 417.126404,302.721130 
	C428.213318,296.149597 440.217163,294.690796 452.778290,295.824158 
	C457.574707,296.256897 461.484100,299.006012 465.823822,300.575104 
	C466.846680,299.187805 464.541229,299.149689 464.927917,297.954041 
	C466.942505,291.724609 461.691315,290.923126 458.103394,289.732941 
	C443.437683,284.867981 429.976440,288.475403 417.215210,296.264099 
	C411.858612,299.533417 406.350433,302.554413 399.842438,306.304077 
	C398.375671,294.109985 395.655792,282.830353 402.570587,272.634583 
	C412.201996,258.433258 425.322113,247.946732 440.576385,240.274628 
	C446.739044,237.175140 451.201080,238.211777 455.845612,243.498276 
	C466.069824,255.135635 476.048584,266.990173 486.025970,278.841553 
	C487.826935,280.980743 489.459442,283.377075 489.390106,286.453552 
	C489.352448,288.124542 490.139160,289.292999 492.062225,289.903961 
	C494.686218,288.174622 496.939880,284.954956 501.106506,286.808533 
	C504.911987,288.501404 507.792084,290.560669 507.337921,295.278809 
	C506.977875,299.018860 508.350647,301.423401 512.051941,303.062683 
	C515.462402,304.573120 518.787415,306.435699 521.344482,309.582367 
	C523.565979,312.316101 527.023926,313.463013 530.683960,313.329315 
	C537.676819,313.073914 540.978577,315.971588 542.299194,322.680389 
	C543.116394,326.831604 545.261047,330.275543 550.269348,330.540375 
	C551.248230,330.592133 552.309265,330.787750 553.162720,331.238464 
	C558.521545,334.068542 563.722717,337.031586 570.028687,337.668915 
	C572.803772,337.949371 574.741333,340.380096 575.454590,343.543549 
	C576.157715,346.661926 577.154968,349.319244 581.704590,348.989166 
	C584.727905,348.769836 586.892334,351.816803 588.018860,354.684814 
	C590.232300,360.319672 593.496338,363.197784 600.232910,362.833160 
	C608.243958,362.399536 609.477600,364.204956 611.474365,371.734894 
	C612.454529,375.430908 614.193542,378.867126 617.615295,381.121185 
	C620.966675,383.328857 624.079346,385.837311 626.613953,388.988312 
	C630.384888,393.676422 630.504089,397.552063 625.611572,400.977692 
	C620.888428,404.284698 620.880066,409.225098 619.695618,413.668457 
	C618.686951,417.452393 623.002197,420.282990 626.790344,418.664307 
	C634.298706,415.455963 641.691040,411.974121 648.659424,407.702209 
	C651.437622,405.999115 654.015015,405.545044 657.131104,406.726898 
	C688.931580,418.787598 722.412720,423.305328 755.705078,428.755554 
	C770.303406,431.145386 784.924194,433.848785 798.704346,439.478790 
	C808.848083,443.623108 818.110413,449.389954 823.775208,459.184875 
	C833.118713,475.341034 829.026733,496.465851 813.633118,510.971558 
	C801.785645,522.135559 787.944580,530.517456 773.485474,537.868164 
	C758.902832,545.281616 743.888977,551.607239 727.556274,555.631592 
M460.525665,424.328735 
	C447.599762,423.929108 435.358551,420.052521 423.005371,416.822357 
	C414.331421,414.554260 405.793243,411.763611 397.108429,409.542450 
	C394.147217,408.785126 390.794678,408.506989 388.952942,412.222961 
	C387.138672,415.883453 388.735931,418.669739 391.129730,421.204407 
	C392.022675,422.149933 393.227997,422.860413 394.397217,423.476135 
	C411.481049,432.472595 428.649780,441.332581 447.129395,447.170380 
	C460.590424,451.422760 474.262146,453.564484 488.320618,449.703400 
	C508.616241,444.129272 515.912109,424.254761 503.885254,407.020325 
	C500.329193,401.924500 495.834229,397.754761 491.271881,393.591980 
	C488.249512,390.834351 485.011078,389.480988 480.906769,389.843597 
	C480.354797,393.018555 481.108521,395.752258 482.294830,398.582397 
	C486.682770,409.050568 483.115997,418.014832 473.205933,422.614075 
	C469.394196,424.383087 465.482635,424.386108 460.525665,424.328735 
M696.779663,475.116516 
	C702.108582,473.293640 708.514954,474.839294 712.911621,469.946442 
	C713.178162,469.649750 714.415100,470.262817 715.209900,470.397095 
	C722.043335,471.551666 728.268372,468.816589 734.675964,467.289581 
	C735.469482,467.100464 736.126709,466.368561 735.964478,465.393921 
	C735.810547,464.468384 735.008728,463.677765 734.233704,463.977570 
	C729.851868,465.672852 725.366699,463.585144 720.945496,464.567047 
	C710.021851,466.993164 698.908264,468.141266 687.813660,469.536591 
	C674.435486,471.219147 661.374512,474.678131 648.699158,479.401764 
	C647.727417,479.763916 646.301636,479.849487 646.724304,482.115814 
	C663.239624,480.619080 679.598938,478.006866 696.779663,475.116516 
M280.511841,371.012482 
	C272.273743,366.647003 263.871552,362.734650 254.937531,359.884827 
	C251.966263,358.937012 249.633759,357.566864 247.109238,360.220947 
	C247.317917,360.697388 247.369949,361.086670 247.592300,361.285004 
	C257.289124,369.934479 267.587799,377.826813 278.204620,385.296570 
	C281.380310,387.530914 287.745911,385.463623 290.046448,381.792236 
	C291.490204,379.488220 291.666046,377.510010 288.872467,375.984070 
	C286.242981,374.547760 283.716248,372.923401 280.511841,371.012482 
z"/>
<path fill="#000000" opacity="1.000000" stroke="none" 
	d="
M230.790344,663.000000 
	C230.788773,648.844727 230.886642,635.188232 230.728195,621.534790 
	C230.679504,617.340698 231.958069,615.390991 236.448135,615.645020 
	C241.594360,615.936035 246.774597,615.868652 251.929626,615.676575 
	C255.451813,615.545288 256.453491,617.035095 256.588043,620.386902 
	C256.982452,630.209106 256.844849,640.020203 256.356476,649.822571 
	C256.132172,654.324829 257.733826,656.232422 262.366760,656.028809 
	C268.517212,655.758484 274.687988,655.990479 280.847015,655.862671 
	C286.589020,655.743530 287.962158,654.378174 287.967377,648.707642 
	C287.975800,639.549683 287.973907,630.387573 287.702850,621.235352 
	C287.583160,617.193665 288.893433,615.435364 293.107635,615.639832 
	C298.258209,615.889771 303.442322,615.936584 308.588043,615.646729 
	C312.953705,615.400818 314.405029,616.997925 314.372162,621.370728 
	C314.208069,643.184753 314.303314,665.000732 314.303314,686.815979 
	C314.303345,695.142395 314.151337,703.472168 314.348572,711.793762 
	C314.442749,715.766907 312.727417,717.166443 309.015808,717.103455 
	C303.688812,717.012939 298.354828,716.955994 293.031799,717.129028 
	C289.046509,717.258545 287.817719,715.398376 287.862091,711.671387 
	C287.979004,701.847961 287.735199,692.019165 287.923401,682.198059 
	C288.010132,677.670105 286.392242,675.960876 281.777679,676.190186 
	C275.299530,676.511963 268.785431,676.438049 262.300507,676.183228 
	C257.875519,676.009399 256.143219,677.143616 256.438873,682.097961 
	C257.033020,692.054871 256.699066,702.063721 256.978577,712.044678 
	C257.081635,715.724609 255.661880,717.234375 252.073181,717.165833 
	C246.912521,717.067261 241.737808,716.887817 236.590576,717.155701 
	C232.278458,717.380188 230.705704,715.884155 230.757217,711.459351 
	C230.943375,695.474915 230.806244,679.486755 230.790344,663.000000 
z"/>
<path fill="#000000" opacity="1.000000" stroke="none" 
	d="
M671.024841,717.115906 
	C657.632568,717.089966 659.826111,717.910522 659.682129,706.120728 
	C659.584534,698.127808 659.480042,690.127380 659.726501,682.140991 
	C659.859192,677.842590 658.375671,676.077942 654.000549,676.208740 
	C647.178711,676.412720 640.335510,676.473633 633.521179,676.161133 
	C628.897156,675.949036 627.252197,677.791199 627.315002,682.236084 
	C627.453735,692.060120 627.221436,701.890015 627.410461,711.712341 
	C627.484131,715.541382 626.197754,717.224792 622.284790,717.119324 
	C616.959900,716.975708 611.627258,717.074890 606.298645,717.133972 
	C603.552490,717.164429 602.490906,715.924866 602.499268,713.173828 
	C602.593140,682.197876 602.654236,651.221558 602.613831,620.245544 
	C602.609192,616.681396 604.114929,615.584534 607.428528,615.685730 
	C612.420288,615.838257 617.424438,615.866272 622.414612,615.693542 
	C626.039551,615.568176 627.459290,616.941833 627.395569,620.638062 
	C627.232117,630.128113 627.541443,639.628540 627.270935,649.113586 
	C627.132690,653.961792 628.575256,656.168396 633.747437,655.927368 
	C640.728027,655.602051 647.734863,655.710510 654.727295,655.825684 
	C658.362549,655.885498 659.768066,654.433044 659.713684,650.775574 
	C659.567749,640.951721 659.793335,631.121948 659.609497,621.299377 
	C659.535400,617.343506 660.667786,615.458740 664.955444,615.660706 
	C670.605713,615.926819 676.278992,615.825928 681.939026,615.714233 
	C685.139709,615.651184 686.347900,616.966858 686.341248,620.165161 
	C686.277649,650.975403 686.269592,681.785889 686.350647,712.596069 
	C686.360046,716.167908 684.801086,717.298279 681.510193,717.161255 
	C678.184937,717.022644 674.849854,717.121399 671.024841,717.115906 
z"/>
<path fill="#000000" opacity="1.000000" stroke="none" 
	d="
M723.930542,714.309143 
	C715.311035,709.893860 708.894226,703.767151 705.351135,695.074402 
	C697.415283,675.604187 697.451233,656.066406 706.461853,637.042603 
	C713.563477,622.049194 726.361511,615.275269 742.644714,614.702454 
	C749.305115,614.468201 755.926941,614.561707 762.361572,616.842163 
	C782.044128,623.817749 790.092590,639.295105 792.088501,658.566284 
	C793.629578,673.444885 791.278198,687.833679 782.442261,700.488831 
	C772.885803,714.175964 759.237244,719.290588 743.094055,718.747925 
	C736.590515,718.529297 730.184204,717.491882 723.930542,714.309143 
M754.026917,635.125488 
	C740.002563,631.168945 729.384644,637.661743 726.453552,652.346741 
	C724.412170,662.573975 724.649048,672.833069 727.201355,683.017822 
	C729.752808,693.198853 736.286011,699.355957 745.140320,699.673950 
	C754.922607,700.025208 762.547668,694.146423 765.705872,684.044373 
	C768.610046,674.755066 768.407104,665.218262 767.341431,655.817688 
	C766.380737,647.343506 763.031799,639.698059 754.026917,635.125488 
z"/>
<path fill="#000000" opacity="1.000000" stroke="none" 
	d="
M419.652466,653.737915 
	C421.274475,669.788696 421.139435,685.234375 412.330078,699.040100 
	C404.240295,711.718079 392.564423,718.360901 377.287170,718.380432 
	C369.449310,718.390442 361.711639,718.488586 354.322418,715.063904 
	C337.484436,707.259949 330.302765,693.052490 328.860687,675.658630 
	C327.901917,664.094482 328.102173,652.440552 332.471283,641.204041 
	C338.277649,626.271118 353.793884,615.041321 369.747498,614.647095 
	C379.156281,614.414612 388.388336,614.825867 396.963257,619.314758 
	C410.717346,626.514893 416.978058,638.679016 419.652466,653.737915 
M369.134521,634.504150 
	C362.316528,636.874268 358.380402,641.856384 355.931061,648.463562 
	C354.634735,651.960510 354.098297,655.561401 353.742798,659.152344 
	C352.648804,670.202148 352.921661,681.224487 359.200592,690.906128 
	C367.215576,703.264709 383.702820,702.878479 391.441864,690.441162 
	C399.017303,678.266785 398.236664,653.542847 389.906158,641.803528 
	C385.120880,635.060120 377.458801,632.186218 369.134521,634.504150 
z"/>
<path fill="#000000" opacity="1.000000" stroke="none" 
	d="
M438.457764,717.099976 
	C435.357788,717.005371 434.384399,715.888184 434.401031,713.008179 
	C434.575928,682.708191 434.696472,652.406738 434.529572,622.107300 
	C434.501831,617.069763 435.899200,615.523865 440.986664,615.600281 
	C459.646027,615.880737 478.313354,615.830750 496.974792,615.631836 
	C501.719635,615.581299 503.377747,617.122437 503.356873,621.936768 
	C503.299744,635.136658 503.481567,635.138184 490.274200,635.165955 
	C482.942261,635.181396 475.606842,635.335266 468.279633,635.156006 
	C463.744720,635.045044 461.976105,636.970093 462.064087,641.411804 
	C462.406158,658.689575 459.999359,655.426758 475.697205,655.831787 
	C480.859222,655.965027 486.034576,655.987854 491.191803,655.772766 
	C495.380829,655.598022 497.329102,657.065186 497.218994,661.493286 
	C496.839905,676.735413 499.068542,674.079956 484.639618,674.335022 
	C478.975616,674.435242 473.304382,674.484314 467.644043,674.309937 
	C463.489960,674.182007 461.953674,676.003662 462.161194,680.023560 
	C462.358521,683.846069 462.343994,687.693237 462.165222,691.517578 
	C461.984650,695.381104 463.638580,696.929688 467.458618,696.901001 
	C477.455750,696.825928 487.457550,697.090942 497.450500,696.883667 
	C501.754883,696.794434 503.235474,698.177917 503.253632,702.596008 
	C503.313202,717.100830 503.475006,717.113708 488.897400,717.122498 
	C472.233673,717.132568 455.569946,717.115356 438.457764,717.099976 
z"/>
<path fill="#000000" opacity="1.000000" stroke="none" 
	d="
M522.082825,704.800537 
	C519.830017,701.431946 518.284241,698.153015 517.207886,694.605469 
	C516.329346,691.709961 517.293274,690.133240 520.072021,689.389771 
	C521.838318,688.917175 523.597778,688.419006 525.361755,687.937622 
	C533.618408,685.684204 533.618530,685.684998 538.181030,692.614441 
	C542.602539,699.329712 553.925049,702.888794 561.339294,699.835999 
	C564.738403,698.436401 567.359680,696.335999 567.735229,692.289917 
	C568.118225,688.163025 565.782471,685.740051 562.565918,683.933044 
	C555.243591,679.819214 546.851074,678.536011 539.221313,675.207214 
	C532.595764,672.316589 526.132996,669.201721 522.142578,662.781738 
	C509.339661,642.183899 523.399292,616.048706 548.006042,614.745178 
	C556.689697,614.285217 565.257080,614.473999 573.287659,618.777344 
	C580.662903,622.729614 585.109802,628.748230 587.587585,636.551636 
	C588.760132,640.244385 588.294983,642.799072 583.937012,643.452759 
	C583.451721,643.525574 582.991394,643.768250 582.520935,643.936218 
	C579.075378,645.165466 575.617493,647.409729 572.188110,647.366760 
	C567.988220,647.314270 568.393005,641.913330 565.990967,639.335571 
	C561.117249,634.105408 553.425232,632.088623 546.864502,634.946777 
	C540.437195,637.746765 539.319885,646.135437 544.866272,650.435913 
	C548.631409,653.355347 553.217590,654.445740 557.648499,655.876038 
	C564.924255,658.224426 572.049255,660.763794 578.828979,664.540710 
	C595.720764,673.950928 594.855164,699.660950 580.746826,710.709534 
	C572.942932,716.821045 563.969421,718.567871 554.538269,718.755310 
	C541.836365,719.007812 530.467529,715.732666 522.082825,704.800537 
z"/>
<path fill="#000000" opacity="1.000000" stroke="none" 
	d="
M861.207642,618.532837 
	C883.741150,626.032715 886.433899,651.632385 878.531189,666.261597 
	C872.627930,677.189453 862.446960,681.175659 850.840759,682.274292 
	C846.382202,682.696350 841.842712,682.503296 837.354065,682.292542 
	C833.695435,682.120728 832.266174,683.485046 832.346008,687.197754 
	C832.528687,695.691040 832.244446,704.196655 832.535156,712.684143 
	C832.649353,716.020447 831.682190,717.218750 828.408142,717.136536 
	C822.913513,716.998535 817.409851,716.987366 811.916016,717.140808 
	C808.386841,717.239441 806.794128,716.056091 806.804993,712.270508 
	C806.892273,681.780884 806.870728,651.290771 806.807617,620.801025 
	C806.800415,617.322510 807.881836,615.549683 811.690002,615.685547 
	C825.654602,616.183899 839.656555,614.852539 853.605347,616.615601 
	C856.120422,616.933411 858.504761,617.477844 861.207642,618.532837 
M854.417969,639.104919 
	C849.437500,634.724426 843.341064,635.268311 837.351868,635.119202 
	C833.751160,635.029602 832.187866,636.390259 832.307556,640.094727 
	C832.485046,645.585938 832.339294,651.087158 832.357849,656.584045 
	C832.385742,664.844177 832.395569,664.844177 840.764343,664.680603 
	C841.430420,664.667603 842.100708,664.697266 842.761902,664.632874 
	C857.034729,663.243896 862.712524,651.581787 854.417969,639.104919 
z"/>
<path fill="#000000" opacity="1.000000" stroke="none" 
	d="
M175.255829,614.691650 
	C182.220535,614.607239 188.668961,614.521790 194.993637,616.644348 
	C206.766968,620.595642 213.620178,628.598083 215.628922,641.751709 
	C210.450851,643.526001 205.175476,645.386963 199.861938,647.131714 
	C197.235229,647.994202 197.027008,645.851501 196.292007,644.157288 
	C192.528427,635.481384 184.329254,631.594299 175.958298,634.397827 
	C171.790298,635.793701 169.017441,638.654968 168.535690,642.965759 
	C168.047424,647.334839 170.926880,650.019714 174.536484,651.889099 
	C180.487335,654.971069 187.023514,656.467285 193.293152,658.684692 
	C197.860855,660.300049 202.338715,662.085754 206.390854,664.786316 
	C223.559296,676.228027 222.683655,701.578003 205.240829,712.673828 
	C191.393997,721.482178 164.509552,720.405151 153.398804,708.551453 
	C149.255936,704.131653 146.632629,699.190063 144.901169,693.545532 
	C144.258911,691.451782 144.964493,690.346802 146.890076,689.780945 
	C151.039627,688.561462 155.225189,687.456604 159.341934,686.136169 
	C162.124268,685.243713 162.812546,687.109985 163.680206,688.971008 
	C167.795685,697.798218 175.072250,701.115784 184.398712,700.693848 
	C189.994522,700.440735 194.383270,697.237122 195.380875,692.879272 
	C196.266068,689.012451 193.733246,685.238831 188.391220,682.582458 
	C183.594437,680.197266 178.453201,678.768066 173.324356,677.331482 
	C168.481689,675.975098 163.890396,673.996887 159.534088,671.546997 
	C149.759827,666.050232 145.151947,657.347839 145.230499,646.376343 
	C145.322830,633.476807 150.917267,623.666748 162.811768,617.877014 
	C166.605804,616.030212 170.626801,615.125122 175.255829,614.691650 
z"/>
<path fill="#000000" opacity="1.000000" stroke="none" 
	d="
M447.045959,780.911438 
	C444.408295,777.095032 442.490631,773.189087 438.856293,769.664185 
	C437.813629,774.869019 438.649841,779.480957 438.320190,784.024536 
	C438.120850,786.772217 439.438049,790.430664 434.384033,790.300476 
	C429.316681,790.169983 430.782532,786.421204 430.732391,783.765991 
	C430.584625,775.944153 430.580505,768.115295 430.754791,760.294373 
	C430.804199,758.077148 429.382141,754.718750 433.019562,754.088257 
	C436.334534,753.513733 439.564392,753.993286 441.638214,757.539734 
	C444.238922,761.987244 447.226410,766.208191 450.027557,770.539429 
	C450.557831,771.359375 450.870117,772.369751 452.463318,772.543945 
	C453.434174,768.015747 452.654541,763.415833 452.737030,758.879761 
	C452.794647,755.711853 453.472412,753.658630 457.149353,753.873962 
	C460.661591,754.079773 460.709900,756.168701 460.675842,759.058228 
	C460.574097,767.701111 460.905182,776.348511 461.003296,784.994873 
	C461.024811,786.887939 461.777679,789.418945 459.112061,790.032471 
	C456.379608,790.661316 453.405090,790.979675 451.511566,787.963074 
	C450.096619,785.708862 448.672180,783.460693 447.045959,780.911438 
z"/>
<path fill="#000000" opacity="1.000000" stroke="none" 
	d="
M320.888367,754.657349 
	C326.854065,760.244873 329.643219,767.788147 335.400055,774.135620 
	C335.835815,768.593567 335.728088,763.854187 335.210938,759.102905 
	C334.882812,756.088257 335.505646,753.859741 339.292908,753.781738 
	C342.879364,753.707825 343.321991,755.796997 343.310089,758.612061 
	C343.272827,767.430908 343.358734,776.250427 343.292145,785.068909 
	C343.278076,786.928284 343.981842,789.491821 341.249359,790.038696 
	C338.508423,790.587219 335.672150,790.912109 333.747955,787.803467 
	C330.684906,782.854858 327.398529,778.043945 324.175262,773.195618 
	C323.649902,772.405334 323.224426,771.398682 321.328918,771.423340 
	C321.328918,776.134216 321.194519,780.868469 321.374573,785.590759 
	C321.501709,788.924988 320.465332,790.480713 316.862213,790.360046 
	C313.014069,790.231262 313.341370,787.930054 313.398193,785.253235 
	C313.578125,776.772339 313.569183,768.287476 313.652740,759.804443 
	C313.711609,753.826172 314.219696,753.445984 320.888367,754.657349 
z"/>
<path fill="#000000" opacity="1.000000" stroke="none" 
	d="
M697.539001,753.869202 
	C707.358826,755.882019 709.761047,758.163513 710.212891,765.595642 
	C710.428467,769.139587 709.276306,772.296448 706.482056,774.424438 
	C703.459229,776.726440 703.753418,778.608582 705.920471,781.385681 
	C707.779236,783.767700 709.873169,786.258362 710.337463,789.517151 
	C702.572083,791.405518 701.809204,791.117920 697.829834,784.986755 
	C697.649109,784.708191 697.527405,784.370789 697.293762,784.150146 
	C695.499451,782.456177 695.276123,778.295227 691.893677,779.308167 
	C688.823425,780.227600 690.350586,783.629822 690.293579,785.923340 
	C690.213867,789.130127 688.896423,790.356201 685.736023,790.313538 
	C682.605103,790.271118 681.789551,788.683350 681.809692,785.901611 
	C681.874634,776.933105 681.940857,767.961731 681.775146,758.995789 
	C681.702393,755.060730 683.306213,753.632446 687.127258,753.867004 
	C690.435181,754.070007 693.768005,753.868530 697.539001,753.869202 
M701.454712,767.181274 
	C701.388977,766.530396 701.486938,765.805603 701.231506,765.240417 
	C699.306335,760.981018 695.387695,761.435059 692.236755,762.468933 
	C688.696045,763.630676 689.750671,767.626587 690.611084,769.805664 
	C692.048706,773.447021 695.380005,771.266296 697.960632,770.708069 
	C699.496826,770.375732 700.572021,769.314941 701.454712,767.181274 
z"/>
<path fill="#000000" opacity="1.000000" stroke="none" 
	d="
M285.104706,790.658020 
	C274.499634,792.399170 266.998779,788.590027 264.094482,780.331970 
	C260.640869,770.511902 263.947327,759.925354 271.905701,755.322144 
	C277.993927,751.800781 287.335785,753.235962 292.654633,758.509949 
	C302.007141,767.783386 297.887054,786.221741 285.104706,790.658020 
M273.997437,780.407166 
	C278.769287,784.502686 282.888885,784.676392 286.047333,780.915344 
	C289.432434,776.884399 289.925629,770.090088 287.119659,765.536804 
	C285.474823,762.867798 283.433167,761.102722 279.903870,761.260437 
	C276.178925,761.427002 274.097412,763.499390 272.747925,766.488586 
	C270.710144,771.002197 271.259583,775.489685 273.997437,780.407166 
z"/>
<path fill="#000000" opacity="1.000000" stroke="none" 
	d="
M631.724670,775.649841 
	C631.748352,771.897034 631.410583,768.604187 632.572205,765.339905 
	C635.562012,756.938110 641.430420,753.157471 651.124512,753.657166 
	C658.683289,754.046814 663.923279,758.759155 665.842224,766.892639 
	C669.064758,780.551086 660.725586,791.675354 647.534790,791.314209 
	C639.439453,791.092590 633.971863,785.819824 631.724670,775.649841 
M653.367065,781.980469 
	C657.075134,778.716736 658.143616,774.469055 657.587341,769.795349 
	C657.035217,765.156616 653.269531,761.427734 649.267578,761.175293 
	C645.099304,760.912292 641.753235,763.639404 640.675720,768.556885 
	C640.036316,771.474915 639.977234,774.462585 641.046936,777.390869 
	C643.164429,783.187683 646.819336,784.788696 653.367065,781.980469 
z"/>
<path fill="#000000" opacity="1.000000" stroke="none" 
	d="
M571.161255,756.691284 
	C573.455200,758.449524 572.721436,760.059448 571.610840,761.693970 
	C570.351440,763.547485 568.587463,763.561157 566.732178,762.962646 
	C564.682495,762.301575 562.719482,761.259399 560.628235,760.873108 
	C558.777649,760.531250 556.873413,761.146912 556.362122,763.351135 
	C555.885742,765.405396 557.328674,766.423828 558.977173,767.013428 
	C561.629211,767.961975 564.368774,768.669189 567.008789,769.647095 
	C571.120728,771.170288 573.819458,774.189514 573.855408,778.560181 
	C573.890442,782.813049 572.404114,786.706055 568.364929,789.109741 
	C562.849060,792.392029 553.679993,791.923584 548.421631,788.159119 
	C545.972107,786.405457 546.068848,784.575623 547.358582,782.160034 
	C548.796692,779.466614 550.444885,780.406982 552.281799,781.456482 
	C554.684570,782.829346 557.359070,782.981384 560.024719,782.971130 
	C561.934692,782.963806 563.891052,782.475159 564.323486,780.334167 
	C564.738403,778.279663 562.875000,777.485779 561.381836,776.837219 
	C559.560730,776.046204 557.606628,775.567200 555.733215,774.889282 
	C548.767761,772.368835 545.738342,767.802307 547.002197,761.781616 
	C548.065125,756.717957 554.419800,752.494690 560.585327,753.143677 
	C564.177795,753.521851 567.908264,753.911316 571.161255,756.691284 
z"/>
<path fill="#000000" opacity="1.000000" stroke="none" 
	d="
M748.527710,768.008240 
	C750.570679,769.813293 750.298401,771.750977 749.804260,773.852722 
	C747.101440,775.096863 744.249329,774.230103 741.490601,774.299561 
	C738.564697,774.373291 736.281799,774.502747 736.224060,778.437988 
	C736.163452,782.575195 738.533203,783.033142 741.690918,782.964722 
	C744.353027,782.907043 747.017639,782.926025 749.680481,782.962402 
	C752.265991,782.997742 754.279968,783.629578 754.164124,786.899414 
	C754.056885,789.924438 752.170227,790.331299 749.773987,790.320007 
	C743.781433,790.291809 737.787720,790.247009 731.796326,790.335266 
	C728.801208,790.379395 727.646729,789.053284 727.671082,786.120178 
	C727.748596,776.798828 727.762573,767.475708 727.669617,758.154663 
	C727.639832,755.169312 728.870605,753.930298 731.807251,753.963196 
	C737.798584,754.030334 743.791443,753.958069 749.783386,753.989441 
	C752.203186,754.002075 754.108032,754.741089 753.989929,757.680298 
	C753.879089,760.440186 752.254700,761.361816 749.684509,761.302612 
	C746.357178,761.225830 743.026733,761.278137 739.697632,761.282776 
	C737.845764,761.285400 736.410156,761.757202 736.346924,764.018738 
	C736.282471,766.323303 737.513123,767.419250 739.635925,767.554443 
	C742.456543,767.734070 745.286621,767.763245 748.527710,768.008240 
z"/>
<path fill="#000000" opacity="1.000000" stroke="none" 
	d="
M496.054565,761.276062 
	C493.433411,761.373291 491.257202,761.333862 489.127350,761.629028 
	C487.267731,761.886780 486.173920,763.057434 486.405182,765.121765 
	C486.618317,767.024170 487.900635,767.571533 489.550964,767.611145 
	C492.047729,767.671021 494.545502,767.688782 497.042908,767.721863 
	C499.305939,767.751770 500.307709,768.852661 500.294403,771.154785 
	C500.280457,773.574768 499.030090,774.341553 496.848724,774.323242 
	C494.685181,774.305115 492.517456,774.330139 490.357391,774.445496 
	C487.207306,774.613586 486.164642,776.405151 486.271759,779.451233 
	C486.380249,782.535767 488.205322,782.913147 490.601471,782.877686 
	C493.598358,782.833313 496.597382,782.895081 499.592926,782.814758 
	C502.044647,782.749084 503.262970,783.687622 503.310303,786.294434 
	C503.358459,788.948975 502.516266,790.363403 499.635223,790.323242 
	C493.641693,790.239746 487.646118,790.263245 481.651703,790.298218 
	C478.901855,790.314270 477.764496,788.951721 477.776886,786.299316 
	C477.820435,776.974121 477.858643,767.648621 477.821991,758.323486 
	C477.809418,755.126587 479.335205,753.840332 482.423431,753.877563 
	C487.751282,753.941833 493.080505,753.884827 498.409149,753.893127 
	C500.770111,753.896790 503.188446,753.637573 503.275909,757.224487 
	C503.361328,760.729431 501.411041,761.474915 498.517365,761.328674 
	C497.852417,761.295044 497.185638,761.298401 496.054565,761.276062 
z"/>
<path fill="#000000" opacity="1.000000" stroke="none" 
	d="
M608.348633,770.136841 
	C608.346436,775.434021 608.259949,780.254578 608.370850,785.070618 
	C608.444336,788.262634 608.074219,790.465027 603.910156,790.402527 
	C599.605530,790.338013 599.643127,787.799805 599.671814,784.789978 
	C599.725586,779.141113 599.401794,773.473267 599.763306,767.847290 
	C600.075745,762.985168 598.710144,760.553833 593.454712,761.254822 
	C591.874207,761.465576 589.837097,761.569824 589.285339,759.472229 
	C588.598389,756.861145 588.650818,754.148804 592.304565,754.076538 
	C600.275818,753.918945 608.252136,753.996277 616.226257,754.012024 
	C618.622131,754.016785 619.273376,755.505066 619.230164,757.645386 
	C619.181335,760.064453 618.152832,761.115173 615.634766,761.363037 
	C608.332092,762.081909 608.342285,762.185608 608.348633,770.136841 
z"/>
<path fill="#000000" opacity="1.000000" stroke="none" 
	d="
M362.601257,782.517334 
	C362.630432,774.235962 362.656921,766.410706 362.649231,758.585449 
	C362.646790,756.108704 362.696106,753.886108 366.166473,753.860779 
	C369.553955,753.835938 370.398560,755.579224 370.346954,758.579773 
	C370.240997,764.738281 370.618744,770.919189 370.225098,777.054138 
	C369.915955,781.872009 371.899445,783.311218 376.294434,782.927673 
	C378.439209,782.740417 380.618988,782.928894 382.782043,782.982971 
	C385.225555,783.044067 386.316681,784.246094 386.302765,786.765503 
	C386.288483,789.350342 385.123627,790.336853 382.652344,790.309814 
	C378.157715,790.260620 373.661865,790.336182 369.166718,790.316772 
	C361.917206,790.285461 361.875641,790.224243 362.601257,782.517334 
z"/>
<path fill="#000000" opacity="1.000000" stroke="none" 
	d="
M403.665405,781.932129 
	C403.669830,773.984619 403.738312,766.525330 403.647705,759.068054 
	C403.610657,756.015625 404.164581,753.942017 407.897827,753.900879 
	C411.559601,753.860657 412.341553,755.730164 412.304199,758.892456 
	C412.202362,767.509766 412.249878,776.129211 412.277771,784.747620 
	C412.287384,787.715027 412.373810,790.342773 408.053558,790.347900 
	C403.906525,790.352783 403.478821,788.054626 403.663269,784.906860 
	C403.711670,784.081055 403.667236,783.249878 403.665405,781.932129 
z"/>
</svg>